{
  "asset": {
    "version": "2.0",
    "generator": "Sketchup glTF Exporter v1.2.6 by Centaur"
  },
  "scene": 0,
  "scenes": [
    {
      "nodes": [
        0
      ]
    }
  ],
  "samplers": [
    {
    }
  ],
  "nodes": [
    {
      "name": "root",
      "children": [
        1,
        2,
        3,
        4,
        5
      ]
    },
    {
      "mesh": 0
    },
    {
      "mesh": 1
    },
    {
      "mesh": 2
    },
    {
      "mesh": 3
    },
    {
      "mesh": 4
    }
  ],
  "materials": [
    {
      "pbrMetallicRoughness": {
        "baseColorTexture": {
          "index": 0
        },
        "metallicFactor": 0.1,
        "roughnessFactor": 0.9
      },
      "name": "材料"
    }
  ],
  "images": [
    {
      "uri": "textures/Material_diffuse.png"
    }
  ],
  "textures": [
    {
      "source": 0,
      "sampler": 0
    }
  ],
  "meshes": [
    {
      "primitives": [
        {
          "attributes": {
            "POSITION": 0,
            "NORMAL": 1,
            "TEXCOORD_0": 2
          },
          "indices": 3,
          "mode": 4,
          "material": 0
        }
      ]
    },
    {
      "primitives": [
        {
          "attributes": {
            "POSITION": 0,
            "NORMAL": 1,
            "TEXCOORD_0": 2
          },
          "indices": 4,
          "mode": 4,
          "material": 0
        }
      ]
    },
    {
      "primitives": [
        {
          "attributes": {
            "POSITION": 0,
            "NORMAL": 1,
            "TEXCOORD_0": 2
          },
          "indices": 5,
          "mode": 4,
          "material": 0
        }
      ]
    },
    {
      "primitives": [
        {
          "attributes": {
            "POSITION": 0,
            "NORMAL": 1,
            "TEXCOORD_0": 2
          },
          "indices": 6,
          "mode": 4,
          "material": 0
        }
      ]
    },
    {
      "primitives": [
        {
          "attributes": {
            "POSITION": 0,
            "NORMAL": 1,
            "TEXCOORD_0": 2
          },
          "indices": 7,
          "mode": 4,
          "material": 0
        }
      ]
    }
  ],
  "accessors": [
    {
      "bufferView": 1,
      "componentType": 5126,
      "count": 120,
      "type": "VEC3",
      "min": [
        0.0,
        -9.184850993605148e-17,
        -1.5000000000000002
      ],
      "max": [
        0.8000000000000005,
        0.5,
        1.9594348786357652e-16
      ]
    },
    {
      "bufferView": 2,
      "componentType": 5126,
      "count": 120,
      "type": "VEC3",
      "min": [
        -1.0,
        -1.0,
        -1.0
      ],
      "max": [
        1.0,
        1.0,
        1.0
      ]
    },
    {
      "bufferView": 3,
      "componentType": 5126,
      "count": 120,
      "type": "VEC2",
      "min": [
        -45.66929133858268,
        -44.66929133858268
      ],
      "max": [
        45.66929133858268,
        1.0
      ]
    },
    {
      "bufferView": 4,
      "componentType": 5121,
      "count": 36,
      "type": "SCALAR"
    },
    {
      "bufferView": 4,
      "componentType": 5121,
      "count": 36,
      "type": "SCALAR",
      "byteOffset": 36
    },
    {
      "bufferView": 4,
      "componentType": 5121,
      "count": 36,
      "type": "SCALAR",
      "byteOffset": 72
    },
    {
      "bufferView": 4,
      "componentType": 5121,
      "count": 36,
      "type": "SCALAR",
      "byteOffset": 108
    },
    {
      "bufferView": 4,
      "componentType": 5121,
      "count": 36,
      "type": "SCALAR",
      "byteOffset": 144
    }
  ],
  "bufferViews": [
    {
      "buffer": 0,
      "byteLength": 1628062
    },
    {
      "buffer": 0,
      "byteOffset": 1628064,
      "byteLength": 1440,
      "target": 34962,
      "byteStride": 12
    },
    {
      "buffer": 0,
      "byteOffset": 1629504,
      "byteLength": 1440,
      "target": 34962,
      "byteStride": 12
    },
    {
      "buffer": 0,
      "byteOffset": 1630944,
      "byteLength": 960,
      "target": 34962,
      "byteStride": 8
    },
    {
      "buffer": 0,
      "byteOffset": 1631904,
      "byteLength": 180,
      "target": 34963
    }
  ],
  "buffers": [
    {
      "uri": "data:application/octet-stream;base64,",
      "byteLength": 1632084
    }
  ]
}