# Alias OBJ Model File
# Exported from SketchUp, (c) 2000-2012 Trimble Navigation Limited
# File units = centimeters

mtllib 無標題.mtl

g Mesh1 Group1 Model

usemtl _
v 80 0 -0
vt 0 0
vn 1 0 -0
v 80 0 -4
vt 1.5748 0
v 80 50 -4
vt 1.5748 19.685
v 80 50 -0
vt 0 19.685
f 1/1/1 2/2/1 3/3/1 4/4/1 

vt -31.4961 1.5748
vn 0 -1 -0
vt -31.4961 0
v 0 0 -0
v 0 0 -4
vt 0 1.5748
f 2/5/2 1/6/2 5/1/2 6/7/2 

vn 0 0 1
vt 31.4961 0
vt 31.4961 19.685
v 0 50 -0
f 5/1/3 1/8/3 4/9/3 7/4/3 

vn 0 1 -0
vt 31.4961 1.5748
v 0 50 -4
f 4/8/4 3/10/4 8/7/4 7/1/4 

vn 0 0 -1
vt -31.4961 19.685
f 2/6/5 6/1/5 8/4/5 3/11/5 

vt -1.5748 0
vn -1 0 -0
vt -1.5748 19.685
f 6/12/6 5/1/6 7/4/6 8/13/6 

g Mesh2 Group1 Model

l 2 3

l 1 2

l 1 4

l 5 1

l 5 7

l 6 5

l 2 6

l 6 8

l 8 7

l 3 8

l 4 3

l 7 4

g Mesh3 Group2 Model

v 80 4 -4
v 0 4 -4
f 9/10/3 10/7/3 6/1/3 2/8/3 

v 80 4 -34
vt 31.4961 11.811
v 0 4 -34
vt 0 11.811
f 10/1/4 9/8/4 11/14/4 12/15/4 

v 80 0 -34
vt 11.811 0
vt 11.811 1.5748
f 9/7/1 2/1/1 13/16/1 11/17/1 

v 0 0 -34
vt -31.4961 11.811
f 2/6/2 6/1/2 14/15/2 13/18/2 

vt -11.811 1.5748
vt -11.811 0
f 6/1/6 10/7/6 12/19/6 14/20/6 

f 12/7/5 11/5/5 13/6/5 14/1/5 

g Mesh4 Group2 Model

l 2 13

l 2 6

l 9 2

l 10 9

l 6 10

l 6 14

l 14 12

l 13 14

l 11 13

l 12 11

l 10 12

l 9 11

g Mesh5 Group3 Model

v 0 4 -30
v 0 50 -30
vt 0 18.1102
v 0 50 -34
vt -1.5748 18.1102
f 12/12/6 15/1/6 16/21/6 17/22/6 

v 80 4 -30
f 15/1/2 12/7/2 11/5/2 18/6/2 

v 80 50 -34
vt -31.4961 18.1102
f 11/6/5 12/1/5 17/21/5 19/23/5 

v 80 50 -30
f 17/7/4 16/1/4 20/8/4 19/10/4 

vt 31.4961 18.1102
f 15/1/3 18/8/3 20/24/3 16/21/3 

vt 1.5748 18.1102
f 18/1/1 11/2/1 19/25/1 20/21/1 

g Mesh6 Group3 Model

l 16 17

l 15 16

l 15 12

l 18 15

l 18 20

l 11 18

l 11 19

l 12 11

l 12 17

l 17 19

l 19 20

l 20 16

g Mesh7 Group4 Model

v 80 50 -150
v 80 46 -150
v 0 46 -150
v 0 50 -150
f 21/5/5 22/6/5 23/1/5 24/7/5 

v 80 46 -34
vt 45.6693 0
vt 45.6693 1.5748
f 19/7/1 25/1/1 22/26/1 21/27/1 

v 0 46 -34
f 25/8/3 19/10/3 17/7/3 26/1/3 

vt 31.4961 45.6693
vt 0 45.6693
f 17/1/4 19/8/4 21/28/4 24/29/4 

vt -45.6693 1.5748
vt -45.6693 0
f 26/1/6 17/7/6 24/30/6 23/31/6 

vt -31.4961 45.6693
f 25/6/2 26/1/2 23/29/2 22/32/2 

g Mesh8 Group4 Model

l 25 19

l 26 25

l 17 26

l 19 17

l 19 21

l 22 21

l 23 22

l 24 23

l 21 24

l 17 24

l 26 23

l 25 22

g Mesh9 Group5 Model

v 80 46 -146
v 80 0 -146
v 80 0 -150
f 22/25/1 27/21/1 28/1/1 29/2/1 

v 0 46 -146
f 30/1/4 27/8/4 22/10/4 23/7/4 

v 0 0 -146
f 27/24/3 30/21/3 31/1/3 28/8/3 

v 0 0 -150
f 30/21/6 23/22/6 32/12/6 31/1/6 

f 23/21/5 22/23/5 29/6/5 32/1/5 

f 28/6/2 31/1/2 32/7/2 29/5/2 

g Mesh10 Group5 Model

l 29 32

l 22 29

l 27 22

l 27 28

l 30 27

l 23 30

l 23 32

l 22 23

l 32 31

l 30 31

l 31 28

l 28 29

