{
  "asset": {
    "version": "2.0",
    "generator": "Sketchup glTF Exporter v1.2.6 by Centaur"
  },
  "scene": 0,
  "scenes": [
    {
      "nodes": [
        0
      ]
    }
  ],
  "samplers": [
    {
    }
  ],
  "nodes": [
    {
      "name": "root",
      "children": [
        1
      ]
    },
    {
      "children": [
        2,
        5,
        8,
        11,
        18,
        25,
        28,
        31,
        34,
        37,
        40,
        43,
        46,
        53
      ]
    },
    {
      "name": "Box032",
      "children": [
        3
      ]
    },
    {
      "children": [
        4
      ]
    },
    {
      "name": "3DGeom~43_Defintion",
      "mesh": 0
    },
    {
      "name": "Box028",
      "children": [
        6
      ]
    },
    {
      "children": [
        7
      ]
    },
    {
      "name": "3DGeom~20_Defintion",
      "mesh": 1
    },
    {
      "name": "Ressalto-extrusão006",
      "children": [
        9
      ]
    },
    {
      "children": [
        10
      ]
    },
    {
      "name": "3DGeom~26_Defintion",
      "mesh": 2
    },
    {
      "name": "Group024",
      "children": [
        12,
        15
      ]
    },
    {
      "name": "Shape023",
      "children": [
        13
      ]
    },
    {
      "children": [
        14
      ]
    },
    {
      "name": "3DGeom~45_Defintion",
      "mesh": 3
    },
    {
      "name": "default001FASFAF023",
      "children": [
        16
      ]
    },
    {
      "children": [
        17
      ]
    },
    {
      "name": "3DGeom~46_Defintion",
      "mesh": 4
    },
    {
      "name": "Group015",
      "children": [
        19,
        22
      ]
    },
    {
      "name": "Shape014",
      "children": [
        20
      ]
    },
    {
      "children": [
        21
      ]
    },
    {
      "name": "3DGeom~22_Defintion",
      "mesh": 5
    },
    {
      "name": "default001FASFAF014",
      "children": [
        23
      ]
    },
    {
      "children": [
        24
      ]
    },
    {
      "name": "3DGeom~23_Defintion",
      "mesh": 6
    },
    {
      "name": "Box025",
      "children": [
        26
      ]
    },
    {
      "children": [
        27
      ]
    },
    {
      "name": "3DGeom~10_Defintion",
      "mesh": 7
    },
    {
      "name": "Ressalto-extrusão007",
      "children": [
        29
      ]
    },
    {
      "children": [
        30
      ]
    },
    {
      "name": "3DGeom~49_Defintion",
      "mesh": 8
    },
    {
      "name": "Box029",
      "children": [
        32
      ]
    },
    {
      "children": [
        33
      ]
    },
    {
      "name": "3DGeom~21_Defintion",
      "mesh": 9
    },
    {
      "name": "Ressalto-extrusão005",
      "children": [
        35
      ]
    },
    {
      "children": [
        36
      ]
    },
    {
      "name": "3DGeom~11_Defintion",
      "mesh": 10
    },
    {
      "name": "Box026",
      "children": [
        38
      ]
    },
    {
      "children": [
        39
      ]
    },
    {
      "name": "3DGeom~12_Defintion",
      "mesh": 11
    },
    {
      "name": "Box027",
      "children": [
        41
      ]
    },
    {
      "children": [
        42
      ]
    },
    {
      "name": "3DGeom~13_Defintion",
      "mesh": 12
    },
    {
      "name": "Box033",
      "children": [
        44
      ]
    },
    {
      "children": [
        45
      ]
    },
    {
      "name": "3DGeom~44_Defintion",
      "mesh": 13
    },
    {
      "name": "Group013",
      "children": [
        47,
        50
      ]
    },
    {
      "name": "Shape012",
      "children": [
        48
      ]
    },
    {
      "children": [
        49
      ]
    },
    {
      "name": "3DGeom~16_Defintion",
      "mesh": 14
    },
    {
      "name": "default001FASFAF012",
      "children": [
        51
      ]
    },
    {
      "children": [
        52
      ]
    },
    {
      "name": "3DGeom~17_Defintion",
      "mesh": 15
    },
    {
      "name": "Group016",
      "children": [
        54,
        57
      ]
    },
    {
      "name": "Shape015",
      "children": [
        55
      ]
    },
    {
      "children": [
        56
      ]
    },
    {
      "name": "3DGeom~24_Defintion",
      "mesh": 16
    },
    {
      "name": "default001FASFAF015",
      "children": [
        58
      ]
    },
    {
      "children": [
        59
      ]
    },
    {
      "name": "3DGeom~25_Defintion",
      "mesh": 17
    }
  ],
  "materials": [
    {
      "pbrMetallicRoughness": {
        "baseColorFactor": [
          0.2176,
          0.2176,
          0.2176,
          1.0
        ],
        "metallicFactor": 0.1,
        "roughnessFactor": 0.9
      },
      "name": "default material",
      "doubleSided": true
    }
  ],
  "meshes": [
    {
      "primitives": [
        {
          "attributes": {
            "POSITION": 0,
            "NORMAL": 1
          },
          "indices": 2,
          "mode": 4,
          "material": 0
        }
      ]
    },
    {
      "primitives": [
        {
          "attributes": {
            "POSITION": 0,
            "NORMAL": 1
          },
          "indices": 3,
          "mode": 4,
          "material": 0
        }
      ]
    },
    {
      "primitives": [
        {
          "attributes": {
            "POSITION": 0,
            "NORMAL": 1
          },
          "indices": 4,
          "mode": 4,
          "material": 0
        }
      ]
    },
    {
      "primitives": [
        {
          "attributes": {
            "POSITION": 0,
            "NORMAL": 1
          },
          "indices": 5,
          "mode": 4,
          "material": 0
        }
      ]
    },
    {
      "primitives": [
        {
          "attributes": {
            "POSITION": 0,
            "NORMAL": 1
          },
          "indices": 6,
          "mode": 4,
          "material": 0
        }
      ]
    },
    {
      "primitives": [
        {
          "attributes": {
            "POSITION": 0,
            "NORMAL": 1
          },
          "indices": 7,
          "mode": 4,
          "material": 0
        }
      ]
    },
    {
      "primitives": [
        {
          "attributes": {
            "POSITION": 0,
            "NORMAL": 1
          },
          "indices": 8,
          "mode": 4,
          "material": 0
        }
      ]
    },
    {
      "primitives": [
        {
          "attributes": {
            "POSITION": 0,
            "NORMAL": 1
          },
          "indices": 9,
          "mode": 4,
          "material": 0
        }
      ]
    },
    {
      "primitives": [
        {
          "attributes": {
            "POSITION": 0,
            "NORMAL": 1
          },
          "indices": 10,
          "mode": 4,
          "material": 0
        }
      ]
    },
    {
      "primitives": [
        {
          "attributes": {
            "POSITION": 0,
            "NORMAL": 1
          },
          "indices": 11,
          "mode": 4,
          "material": 0
        }
      ]
    },
    {
      "primitives": [
        {
          "attributes": {
            "POSITION": 0,
            "NORMAL": 1
          },
          "indices": 12,
          "mode": 4,
          "material": 0
        }
      ]
    },
    {
      "primitives": [
        {
          "attributes": {
            "POSITION": 0,
            "NORMAL": 1
          },
          "indices": 13,
          "mode": 4,
          "material": 0
        }
      ]
    },
    {
      "primitives": [
        {
          "attributes": {
            "POSITION": 0,
            "NORMAL": 1
          },
          "indices": 14,
          "mode": 4,
          "material": 0
        }
      ]
    },
    {
      "primitives": [
        {
          "attributes": {
            "POSITION": 0,
            "NORMAL": 1
          },
          "indices": 15,
          "mode": 4,
          "material": 0
        }
      ]
    },
    {
      "primitives": [
        {
          "attributes": {
            "POSITION": 0,
            "NORMAL": 1
          },
          "indices": 16,
          "mode": 4,
          "material": 0
        }
      ]
    },
    {
      "primitives": [
        {
          "attributes": {
            "POSITION": 0,
            "NORMAL": 1
          },
          "indices": 17,
          "mode": 4,
          "material": 0
        }
      ]
    },
    {
      "primitives": [
        {
          "attributes": {
            "POSITION": 0,
            "NORMAL": 1
          },
          "indices": 18,
          "mode": 4,
          "material": 0
        }
      ]
    },
    {
      "primitives": [
        {
          "attributes": {
            "POSITION": 0,
            "NORMAL": 1
          },
          "indices": 19,
          "mode": 4,
          "material": 0
        }
      ]
    }
  ],
  "accessors": [
    {
      "bufferView": 0,
      "componentType": 5126,
      "count": 31559,
      "type": "VEC3",
      "min": [
        -0.09801406982274295,
        -5.232136390809217e-10,
        -3.092303612039667
      ],
      "max": [
        1.5141472227911927,
        0.8475601415416354,
        0.0715364148158002
      ]
    },
    {
      "bufferView": 1,
      "componentType": 5126,
      "count": 31559,
      "type": "VEC3",
      "min": [
        -0.999999999999999,
        -1.0,
        -1.0
      ],
      "max": [
        0.9999999999999993,
        0.9999999999999998,
        1.0
      ]
    },
    {
      "bufferView": 2,
      "componentType": 5123,
      "count": 98112,
      "type": "SCALAR"
    },
    {
      "bufferView": 2,
      "componentType": 5123,
      "count": 30648,
      "type": "SCALAR",
      "byteOffset": 196224
    },
    {
      "bufferView": 2,
      "componentType": 5123,
      "count": 264,
      "type": "SCALAR",
      "byteOffset": 257520
    },
    {
      "bufferView": 2,
      "componentType": 5123,
      "count": 3660,
      "type": "SCALAR",
      "byteOffset": 258048
    },
    {
      "bufferView": 2,
      "componentType": 5123,
      "count": 2907,
      "type": "SCALAR",
      "byteOffset": 265368
    },
    {
      "bufferView": 2,
      "componentType": 5123,
      "count": 3660,
      "type": "SCALAR",
      "byteOffset": 271182
    },
    {
      "bufferView": 2,
      "componentType": 5123,
      "count": 2907,
      "type": "SCALAR",
      "byteOffset": 278502
    },
    {
      "bufferView": 2,
      "componentType": 5123,
      "count": 3108,
      "type": "SCALAR",
      "byteOffset": 284316
    },
    {
      "bufferView": 2,
      "componentType": 5123,
      "count": 294,
      "type": "SCALAR",
      "byteOffset": 290532
    },
    {
      "bufferView": 2,
      "componentType": 5123,
      "count": 1368,
      "type": "SCALAR",
      "byteOffset": 291120
    },
    {
      "bufferView": 2,
      "componentType": 5123,
      "count": 264,
      "type": "SCALAR",
      "byteOffset": 293856
    },
    {
      "bufferView": 2,
      "componentType": 5123,
      "count": 4914,
      "type": "SCALAR",
      "byteOffset": 294384
    },
    {
      "bufferView": 2,
      "componentType": 5123,
      "count": 4914,
      "type": "SCALAR",
      "byteOffset": 304212
    },
    {
      "bufferView": 2,
      "componentType": 5123,
      "count": 3108,
      "type": "SCALAR",
      "byteOffset": 314040
    },
    {
      "bufferView": 2,
      "componentType": 5123,
      "count": 3660,
      "type": "SCALAR",
      "byteOffset": 320256
    },
    {
      "bufferView": 2,
      "componentType": 5123,
      "count": 2907,
      "type": "SCALAR",
      "byteOffset": 327576
    },
    {
      "bufferView": 2,
      "componentType": 5123,
      "count": 3660,
      "type": "SCALAR",
      "byteOffset": 333390
    },
    {
      "bufferView": 2,
      "componentType": 5123,
      "count": 2910,
      "type": "SCALAR",
      "byteOffset": 340710
    }
  ],
  "bufferViews": [
    {
      "buffer": 0,
      "byteLength": 378708,
      "target": 34962,
      "byteStride": 12
    },
    {
      "buffer": 0,
      "byteOffset": 378708,
      "byteLength": 378708,
      "target": 34962,
      "byteStride": 12
    },
    {
      "buffer": 0,
      "byteOffset": 757416,
      "byteLength": 346530,
      "target": 34963
    }
  ],
  "buffers": [
    {
      "uri": "data:application/octet-stream;base64,",
      "byteLength": 1103946
    }
  ]
}